ModelForces
version=1
nRows=4
nColumns=158
inDegrees=no

This file contains the forces exerted on a model during a simulation.

A force is a generalized force, meaning that it can be either a force (N) or a torque (Nm).

Units are S.I. units (second, meters, Newtons, ...)
Angles are in degrees.

endheader
time	glut_med1_r	glut_med2_r	glut_med3_r	glut_min1_r	glut_min2_r	glut_min3_r	semimem_r	semiten_r	bifemlh_r	bifemsh_r	sar_r	add_long_r	add_brev_r	add_mag1_r	add_mag2_r	add_mag3_r	tfl_r	pect_r	grac_r	glut_max1_r	glut_max2_r	glut_max3_r	iliacus_r	psoas_r	quad_fem_r	gem_r	peri_r	rect_fem_r	vas_med_r	vas_int_r	vas_lat_r	med_gas_r	lat_gas_r	soleus_r	tib_post_r	flex_dig_r	flex_hal_r	tib_ant_r	per_brev_r	per_long_r	per_tert_r	ext_dig_r	ext_hal_r	glut_med1_l	glut_med2_l	glut_med3_l	glut_min1_l	glut_min2_l	glut_min3_l	semimem_l	semiten_l	bifemlh_l	bifemsh_l	sar_l	add_long_l	add_brev_l	add_mag1_l	add_mag2_l	add_mag3_l	tfl_l	pect_l	grac_l	glut_max1_l	glut_max2_l	glut_max3_l	iliacus_l	psoas_l	quad_fem_l	gem_l	peri_l	rect_fem_l	vas_med_l	vas_int_l	vas_lat_l	med_gas_l	lat_gas_l	soleus_l	tib_post_l	flex_dig_l	flex_hal_l	tib_ant_l	per_brev_l	per_long_l	per_tert_l	ext_dig_l	ext_hal_l	ercspn_r	ercspn_l	intobl_r	intobl_l	extobl_r	extobl_l	femur_lat_meniscii_r.femur_lat_r.force.X	femur_lat_meniscii_r.femur_lat_r.force.Y	femur_lat_meniscii_r.femur_lat_r.force.Z	femur_lat_meniscii_r.femur_lat_r.torque.X	femur_lat_meniscii_r.femur_lat_r.torque.Y	femur_lat_meniscii_r.femur_lat_r.torque.Z	femur_lat_meniscii_r.meniscus_lat_r.force.X	femur_lat_meniscii_r.meniscus_lat_r.force.Y	femur_lat_meniscii_r.meniscus_lat_r.force.Z	femur_lat_meniscii_r.meniscus_lat_r.torque.X	femur_lat_meniscii_r.meniscus_lat_r.torque.Y	femur_lat_meniscii_r.meniscus_lat_r.torque.Z	femur_med_meniscii_r.femur_med_r.force.X	femur_med_meniscii_r.femur_med_r.force.Y	femur_med_meniscii_r.femur_med_r.force.Z	femur_med_meniscii_r.femur_med_r.torque.X	femur_med_meniscii_r.femur_med_r.torque.Y	femur_med_meniscii_r.femur_med_r.torque.Z	femur_med_meniscii_r.meniscus_med_r.force.X	femur_med_meniscii_r.meniscus_med_r.force.Y	femur_med_meniscii_r.meniscus_med_r.force.Z	femur_med_meniscii_r.meniscus_med_r.torque.X	femur_med_meniscii_r.meniscus_med_r.torque.Y	femur_med_meniscii_r.meniscus_med_r.torque.Z	femur_med_tibia_r.tibia_upper_r.force.X	femur_med_tibia_r.tibia_upper_r.force.Y	femur_med_tibia_r.tibia_upper_r.force.Z	femur_med_tibia_r.tibia_upper_r.torque.X	femur_med_tibia_r.tibia_upper_r.torque.Y	femur_med_tibia_r.tibia_upper_r.torque.Z	femur_med_tibia_r.femur_med_r.force.X	femur_med_tibia_r.femur_med_r.force.Y	femur_med_tibia_r.femur_med_r.force.Z	femur_med_tibia_r.femur_med_r.torque.X	femur_med_tibia_r.femur_med_r.torque.Y	femur_med_tibia_r.femur_med_r.torque.Z	femur_lat_tibia_r.tibia_upper_r.force.X	femur_lat_tibia_r.tibia_upper_r.force.Y	femur_lat_tibia_r.tibia_upper_r.force.Z	femur_lat_tibia_r.tibia_upper_r.torque.X	femur_lat_tibia_r.tibia_upper_r.torque.Y	femur_lat_tibia_r.tibia_upper_r.torque.Z	femur_lat_tibia_r.femur_lat_r.force.X	femur_lat_tibia_r.femur_lat_r.force.Y	femur_lat_tibia_r.femur_lat_r.force.Z	femur_lat_tibia_r.femur_lat_r.torque.X	femur_lat_tibia_r.femur_lat_r.torque.Y	femur_lat_tibia_r.femur_lat_r.torque.Z	aACL_R	pACL_R	aPCL_R	pPCL_R	aMCL_R	mMCL_R	pMCL_R	aLCL_R	mLCL_R	pLCL_R	aPCL_L	pPCL_L	aMCL_L	aLCL_L	ground_prescribedForce_-40_fx	ground_prescribedForce_-40_fy	ground_prescribedForce_-40_fz
      0.51175872	      7.58889734	      5.69396541	      6.09529034	      2.67161211	      3.19265746	      3.21002676	      3.31599180	      3.93177217	      5.21322736	      6.30463046	      0.00000000	      5.64155852	      4.16062281	      2.93335132	      2.46614035	      4.00981143	      3.43451333	      2.24945461	      1.53977482	      3.67426356	      5.58373016	      4.16849439	     22.69875484	     13.02436844	      3.64434120	      2.86258397	      4.12320574	     17.64668261	     11.81256595	     12.08713026	     15.86839412	      0.00000000	      0.94771254	     10.64215690	     12.38623603	      2.58044666	      2.50986972	     12.09582092	      3.63245326	      7.38112412	      9.53032282	      7.09066283	      2.09093586	      7.58889734	      5.69396541	      6.09529034	      2.67161211	      3.19265746	      3.21002676	      8.80494140	      4.10517279	      7.73254440	      7.25119412	      1.52695540	      5.64155852	      4.16062281	      2.93335132	      2.46614035	      4.00981143	      4.11084422	      2.24945461	      1.56622787	      3.67426356	      5.58373016	      4.16849439	     22.69875484	     13.02436844	      3.64434120	      2.86258397	      4.12320574	     10.73478933	      6.62626023	      7.60159656	      8.17355433	     14.10475228	      6.54928538	     31.33837556	     42.45767759	      2.75392688	      2.93418730	      8.50267018	      4.36457300	     12.52120480	      2.01480752	      5.31820062	      1.68956254	     25.12607991	     25.12607991	      9.04699543	      9.04699543	     26.84682259	     26.84682259	     72.09244202	     62.30175721	     13.91249645	     -7.27888044	      1.82403387	     29.62757548	    -72.09244202	    -62.30175721	    -13.91249645	      2.09769735	     -2.24959067	     -0.87378000	    113.44901888	     46.77912985	      2.52196411	     -0.05856568	     -2.34574913	     46.28028983	   -113.44901888	    -46.77912985	     -2.52196411	     -0.77944675	      1.98234109	     -1.84206852	      0.00000000	      0.00000000	      0.00000000	      0.00000000	      0.00000000	      0.00000000	      0.00000000	      0.00000000	      0.00000000	      0.00000000	      0.00000000	      0.00000000	      0.00000000	      0.00000000	      0.00000000	      0.00000000	      0.00000000	      0.00000000	      0.00000000	      0.00000000	      0.00000000	      0.00000000	      0.00000000	      0.00000000	     49.17402490	     13.65375523	     87.16026212	     24.25892430	      0.00000000	      0.00000000	      0.00000000	      0.00000000	      0.00000000	      0.00000000	      0.00000000	      0.00000000	      0.00000001	      0.00000000	     84.26488000	    -70.70660000	      0.00000000
      0.51795803	      7.58556819	      5.69167196	      6.09280479	      2.67058167	      3.19154282	      3.20862143	      3.35408253	      3.95666295	      5.24002542	      6.27791443	      0.00000000	      5.63925970	      4.15904732	      2.93217847	      2.46513082	      4.00799307	      3.43134171	      2.24858149	      1.54697501	      3.67278485	      5.58147613	      4.16678080	     22.69459633	     13.01969202	      3.64290499	      2.86191174	      4.12052964	     17.73976954	     11.97082211	     12.25080562	     16.06479668	      0.00000000	      0.95451110	     10.67121978	     12.33660925	      2.66623291	      2.47527363	     12.02692000	      3.67332752	      7.42850681	      9.59026377	      6.91286059	      2.10124756	      7.58556819	      5.69167196	      6.09280479	      2.67058167	      3.19154282	      3.20862143	      8.80009143	      4.10338914	      7.72850940	      7.24833475	      1.52636915	      5.63925970	      4.15904732	      2.93217847	      2.46513082	      4.00799307	      4.10971967	      2.24858149	      1.56561610	      3.67278485	      5.58147613	      4.16678080	     22.69459633	     13.01969202	      3.64290499	      2.86191174	      4.12052964	     10.72929783	      6.62353039	      7.59840443	      8.17013944	     14.09279919	      6.54372624	     31.31808650	     42.44973567	      2.74896492	      2.93082195	      8.49853807	      4.36209637	     12.51522758	      2.01408207	      5.31697121	      1.68921784	     25.11636672	     25.11636672	      9.04318675	      9.04318675	     26.84340144	     26.84340144	     70.76321757	     61.17166048	     13.21123367	     -6.96112426	      1.78972444	     29.07821358	    -70.76321757	    -61.17166048	    -13.21123367	      2.04662852	     -2.20038719	     -0.85326025	    112.79897211	     46.41697220	      2.61692881	     -0.10607425	     -2.33004589	     46.01661367	   -112.79897211	    -46.41697220	     -2.61692881	     -0.76964281	      1.96714485	     -1.83323712	      0.00000000	      0.00000000	      0.00000000	      0.00000000	      0.00000000	      0.00000000	      0.00000000	      0.00000000	      0.00000000	      0.00000000	      0.00000000	      0.00000000	      0.00000000	      0.00000000	      0.00000000	      0.00000000	      0.00000000	      0.00000000	      0.00000000	      0.00000000	      0.00000000	      0.00000000	      0.00000000	      0.00000000	     48.72756628	     13.12972196	     86.72046446	     23.62489189	      0.00000000	      0.00000000	      0.00000000	      0.00000000	      0.00000000	      0.00000000	      0.00000000	      0.00000000	      0.00000001	      0.00000000	     84.26488000	    -70.70660000	      0.00000000
      0.52415735	      7.58249467	      5.68955456	      6.09051005	      2.66963029	      3.19051374	      3.20732400	      3.33085992	      3.94348344	      5.22147948	      6.23318969	      0.00000000	      5.63713734	      4.15744745	      2.93109564	      2.46419879	      4.00631434	      3.40873902	      2.24777537	      1.53619323	      3.67141965	      5.57939513	      4.16519877	     22.69075709	     13.01537474	      3.64157902	      2.86129113	      4.11805723	     17.72756923	     11.90187087	     12.17934690	     16.00479108	      0.00000000	      0.93167274	     10.62819901	     12.26867154	      2.73900299	      2.42903732	     11.99017820	      3.70931714	      7.47940116	      9.62604443	      6.78815398	      2.12599820	      7.58249467	      5.68955456	      6.09051005	      2.66963029	      3.19051374	      3.20732400	      8.79561336	      4.10174244	      7.72478404	      7.24569485	      1.52582783	      5.63713734	      4.15744746	      2.93109564	      2.46419879	      4.00631434	      4.10868150	      2.24777537	      1.56505128	      3.67141965	      5.57939513	      4.16519877	     22.69075709	     13.01537474	      3.64157902	      2.86129113	      4.11805723	     10.72422781	      6.62101013	      7.59545739	      8.16698677	     14.08172643	      6.53857645	     31.29934249	     42.44240077	      2.74410154	      2.92756884	      8.49472322	      4.35980948	     12.50970071	      2.01341233	      5.31600085	      1.68894768	     25.10739881	     25.10739881	      9.03967047	      9.03967047	     26.84024294	     26.84024294	     71.27584895	     61.63486861	     12.62294675	     -6.73643239	      1.80819718	     29.29096540	    -71.27584895	    -61.63486861	    -12.62294675	      2.04943895	     -2.21071793	     -0.86030202	    113.21667773	     46.38104257	      2.79727120	     -0.18191276	     -2.33802960	     46.19138401	   -113.21667773	    -46.38104257	     -2.79727120	     -0.76366795	      1.97175180	     -1.84679122	      0.00000000	      0.00000000	      0.00000000	      0.00000000	      0.00000000	      0.00000000	      0.00000000	      0.00000000	      0.00000000	      0.00000000	      0.00000000	      0.00000000	      0.00000000	      0.00000000	      0.00000000	      0.00000000	      0.00000000	      0.00000000	      0.00000000	      0.00000000	      0.00000000	      0.00000000	      0.00000000	      0.00000000	     48.49334206	     12.91507498	     86.03879956	     23.80452306	      0.00000000	      0.00000000	      0.00000000	      0.00000000	      0.00000000	      0.00000000	      0.00000000	      0.00000000	      0.00000001	      0.00000000	     84.26488000	    -70.70660000	      0.00000000
      0.52477728	      7.58220060	      5.68935198	      6.09029050	      2.66953926	      3.19041528	      3.20719987	      3.33277965	      3.94454589	      5.22196281	      6.24561358	      0.00000000	      5.63693428	      4.15735425	      2.93099204	      2.46410962	      4.00615373	      3.40777234	      2.24769825	      1.53735161	      3.67128903	      5.57919602	      4.16504740	     22.69038976	     13.01496169	      3.64145216	      2.86123176	      4.11782059	     17.73203262	     11.91008676	     12.18701327	     16.01380053	      0.00000000	      0.93216440	     10.63211955	     12.26139201	      2.74543560	      2.42392231	     11.98290829	      3.71402083	      7.48606547	      9.63465916	      6.77835276	      2.12864210	      7.58220060	      5.68935198	      6.09029050	      2.66953926	      3.19041528	      3.20719987	      8.79518490	      4.10158489	      7.72442760	      7.24544226	      1.52577605	      5.63693428	      4.15735426	      2.93099204	      2.46410962	      4.00615373	      4.10858217	      2.24769825	      1.56499724	      3.67128903	      5.57919602	      4.16504740	     22.69038976	     13.01496169	      3.64145216	      2.86123176	      4.11782059	     10.72374272	      6.62076900	      7.59517543	      8.16668513	     14.08066508	      6.53808282	     31.29754849	     42.44169885	      2.74362030	      2.92724940	      8.49435823	      4.35959066	     12.50917147	      2.01334825	      5.31591721	      1.68892451	     25.10654076	     25.10654076	      9.03933404	      9.03933404	     26.83994074	     26.83994074	     71.37018781	     61.73989643	     12.72973908	     -6.78347513	      1.81127973	     29.32972285	    -71.37018781	    -61.73989643	    -12.72973908	      2.05562261	     -2.21575469	     -0.86095669	    113.11790030	     46.30842375	      2.85015058	     -0.20521425	     -2.33534601	     46.15147520	   -113.11790030	    -46.30842375	     -2.85015058	     -0.76095410	      1.96853509	     -1.84596664	      0.00000000	      0.00000000	      0.00000000	      0.00000000	      0.00000000	      0.00000000	      0.00000000	      0.00000000	      0.00000000	      0.00000000	      0.00000000	      0.00000000	      0.00000000	      0.00000000	      0.00000000	      0.00000000	      0.00000000	      0.00000000	      0.00000000	      0.00000000	      0.00000000	      0.00000000	      0.00000000	      0.00000000	     48.49621242	     12.91522703	     86.06409522	     23.99313967	      0.00000000	      0.00000000	      0.00000000	      0.00000000	      0.00000000	      0.00000000	      0.00000000	      0.00000000	      0.00000001	      0.00000000	     84.26488000	    -70.70660000	      0.00000000
